<mxfile host="app.diagrams.net" modified="2024-02-20T22:31:07.882Z" agent="Mozilla/5.0 (Macintosh; Intel Mac OS X 10_15_7) AppleWebKit/537.36 (KHTML, like Gecko) Chrome/121.0.0.0 Safari/537.36 Edg/121.0.0.0" etag="pdj7H9Rt6CpUoeXVLb54" version="23.0.2" type="github">
  <diagram name="Page-1" id="41PUO9LIWdQhwy8fvfJj">
    <mxGraphModel dx="1386" dy="800" grid="1" gridSize="10" guides="1" tooltips="1" connect="1" arrows="1" fold="1" page="1" pageScale="1" pageWidth="850" pageHeight="1100" math="0" shadow="0">
      <root>
        <mxCell id="0" />
        <mxCell id="1" parent="0" />
        <mxCell id="M9DJQa7MAOZSDziR-gfe-1" value="" style="rounded=0;whiteSpace=wrap;html=1;fillColor=#dae8fc;strokeColor=#6c8ebf;" vertex="1" parent="1">
          <mxGeometry x="440" y="160" width="240" height="280" as="geometry" />
        </mxCell>
        <mxCell id="M9DJQa7MAOZSDziR-gfe-2" value="" style="rounded=1;whiteSpace=wrap;html=1;fillColor=#f5f5f5;fontColor=#333333;strokeColor=#666666;" vertex="1" parent="1">
          <mxGeometry x="240" y="200" width="120" height="120" as="geometry" />
        </mxCell>
        <mxCell id="M9DJQa7MAOZSDziR-gfe-3" value="" style="rounded=0;whiteSpace=wrap;html=1;" vertex="1" parent="1">
          <mxGeometry x="480" y="200" width="160" height="210" as="geometry" />
        </mxCell>
        <mxCell id="M9DJQa7MAOZSDziR-gfe-4" style="edgeStyle=orthogonalEdgeStyle;rounded=0;orthogonalLoop=1;jettySize=auto;html=1;exitX=0.5;exitY=1;exitDx=0;exitDy=0;" edge="1" parent="1" source="M9DJQa7MAOZSDziR-gfe-3" target="M9DJQa7MAOZSDziR-gfe-3">
          <mxGeometry relative="1" as="geometry" />
        </mxCell>
        <mxCell id="M9DJQa7MAOZSDziR-gfe-5" value="" style="image;aspect=fixed;html=1;points=[];align=center;fontSize=12;image=img/lib/azure2/networking/Virtual_Networks.svg;" vertex="1" parent="1">
          <mxGeometry x="650" y="420" width="27" height="16.12" as="geometry" />
        </mxCell>
      </root>
    </mxGraphModel>
  </diagram>
</mxfile>
